<?xml version="1.0" encoding="utf-8"?>
<!-- Generator: Adobe Illustrator 24.0.2, SVG Export Plug-In . SVG Version: 6.00 Build 0)  -->
<svg version="1.1" id="Capa_1" xmlns="http://www.w3.org/2000/svg" xmlns:xlink="http://www.w3.org/1999/xlink" x="0px" y="0px"
	 viewBox="0 0 204.8 64" style="enable-background:new 0 0 204.8 64;" xml:space="preserve">
<style type="text/css">
	.st0{fill:url(#outer_1_);}
	.st1{fill:url(#SVGID_1_);}
	.st2{opacity:0.4;fill:url(#SVGID_2_);enable-background:new    ;}
	.st3{fill:#FFFFFF;}
	.st4{opacity:0.4;fill:url(#SVGID_3_);enable-background:new    ;}
	.st5{fill:#565F64;}
	.st6{fill:url(#SVGID_4_);}
	.st7{fill:#A4AAAE;fill-opacity:0.6;}
	.st8{fill:#333E46;}
	.st9{fill:url(#SVGID_5_);}
	.st10{fill:url(#SVGID_6_);fill-opacity:0.8;}
	.st11{opacity:0.8;fill:url(#SVGID_7_);enable-background:new    ;}
	.st12{fill:url(#SVGID_8_);}
	.st13{fill:url(#SVGID_9_);}
	.st14{fill:url(#SVGID_10_);}
	.st15{fill:url(#SVGID_11_);}
	.st16{fill:url(#SVGID_12_);}
	.st17{fill:url(#SVGID_13_);}
	.st18{fill:url(#SVGID_14_);}
	.st19{fill:#FBFBFB;}
	.st20{fill:#323F47;}
</style>
<linearGradient id="outer_1_" gradientUnits="userSpaceOnUse" x1="7.998" y1="830.2119" x2="56.002" y2="790.0085" gradientTransform="matrix(1 0 0 -1 0 842.1102)">
	<stop  offset="0" style="stop-color:#FFFFFF"/>
	<stop  offset="0.1" style="stop-color:#E7E7E6"/>
	<stop  offset="0.1" style="stop-color:#CDD0D0"/>
	<stop  offset="0.2" style="stop-color:#B5BBBC"/>
	<stop  offset="0.2" style="stop-color:#A5ACAF"/>
	<stop  offset="0.3" style="stop-color:#9BA3A7"/>
	<stop  offset="0.3" style="stop-color:#98A0A4"/>
	<stop  offset="0.4" style="stop-color:#828A8F"/>
	<stop  offset="0.5" style="stop-color:#667075"/>
	<stop  offset="0.6" style="stop-color:#535C63"/>
	<stop  offset="0.7" style="stop-color:#475158"/>
	<stop  offset="0.8" style="stop-color:#434D54"/>
	<stop  offset="1" style="stop-color:#475157"/>
</linearGradient>
<path id="outer_24_" class="st0" d="M63.3,32c0,17.3-14,31.3-31.3,31.3S0.7,49.3,0.7,32S14.7,0.7,32,0.7S63.3,14.7,63.3,32z M32,2.6
	C15.7,2.6,2.6,15.7,2.6,32S15.8,61.4,32,61.4c16.3,0,29.4-13.2,29.4-29.4C61.4,15.7,48.3,2.6,32,2.6z"/>
<linearGradient id="SVGID_1_" gradientUnits="userSpaceOnUse" x1="9.4714" y1="829.0515" x2="54.4714" y2="791.2515" gradientTransform="matrix(1 0 0 -1 0 842.1102)">
	<stop  offset="0" style="stop-color:#0E1F2A"/>
	<stop  offset="0.2" style="stop-color:#323F47"/>
	<stop  offset="0.5" style="stop-color:#777F84"/>
	<stop  offset="0.5" style="stop-color:#81898D"/>
	<stop  offset="0.7" style="stop-color:#B3B8B8"/>
	<stop  offset="0.8" style="stop-color:#D2D5D3"/>
	<stop  offset="0.8" style="stop-color:#DEDFDD"/>
	<stop  offset="1" style="stop-color:#FBFBFB"/>
</linearGradient>
<path class="st1" d="M32,2.6C15.7,2.6,2.6,15.7,2.6,32S15.8,61.4,32,61.4c16.3,0,29.4-13.2,29.4-29.4C61.4,15.7,48.3,2.6,32,2.6z
	 M32,59.5C16.8,59.5,4.5,47.2,4.5,32S16.8,4.5,32,4.5S59.5,16.8,59.5,32S47.2,59.5,32,59.5z"/>
<linearGradient id="SVGID_2_" gradientUnits="userSpaceOnUse" x1="2376.7358" y1="68.9463" x2="2398.636" y2="8.7463" gradientTransform="matrix(-1 0 0 1 2419.6726 -6.8827)">
	<stop  offset="0" style="stop-color:#E1E2E1"/>
	<stop  offset="0.1" style="stop-color:#C1C5C4"/>
	<stop  offset="0.3" style="stop-color:#9BA1A2"/>
	<stop  offset="0.5" style="stop-color:#7D8487"/>
	<stop  offset="0.7" style="stop-color:#687074;stop-opacity:0"/>
	<stop  offset="0.8" style="stop-color:#5B6469;stop-opacity:0"/>
	<stop  offset="1" style="stop-color:#576065;stop-opacity:0"/>
</linearGradient>
<path class="st2" d="M32,63.3c17.3,0,31.3-14,31.3-31.3S49.3,0.7,32,0.7S0.7,14.7,0.7,32C0.7,49.3,14.7,63.3,32,63.3L32,63.3z M32,0
	c17.6,0,32,14.4,32,32S49.6,64,32,64S0,49.6,0,32S14.4,0,32,0L32,0z"/>
<path class="st3" d="M2.2,32.1C2.2,15.7,15.5,2.2,32,2.2l0,0c16.5,0,29.8,13.4,29.8,29.9l0,0c0,16.4-13.3,29.7-29.8,29.7l0,0
	C15.5,61.8,2.2,48.5,2.2,32.1L2.2,32.1z M11.5,11.5c-5.3,5.3-8.6,12.6-8.6,20.6l0,0c0,8,3.3,15.3,8.5,20.5l0,0
	c5.3,5.2,12.6,8.5,20.6,8.5l0,0c8,0,15.3-3.2,20.5-8.5l0,0c5.3-5.2,8.5-12.5,8.5-20.5l0,0c0-8-3.3-15.3-8.5-20.6l0,0
	C47.3,6.2,40,2.9,32,2.9l0,0C24,2.9,16.7,6.2,11.5,11.5L11.5,11.5z"/>
<linearGradient id="SVGID_3_" gradientUnits="userSpaceOnUse" x1="18.2007" y1="834.009" x2="45.7993" y2="786.2114" gradientTransform="matrix(1 0 0 -1 0 842.1102)">
	<stop  offset="0" style="stop-color:#E1E2E1"/>
	<stop  offset="0.1" style="stop-color:#C1C5C4"/>
	<stop  offset="0.3" style="stop-color:#9BA1A2"/>
	<stop  offset="0.5" style="stop-color:#7D8487"/>
	<stop  offset="0.7" style="stop-color:#687074;stop-opacity:0"/>
	<stop  offset="0.8" style="stop-color:#5B6469;stop-opacity:0"/>
	<stop  offset="1" style="stop-color:#576065;stop-opacity:0"/>
</linearGradient>
<path class="st4" d="M32,59.6c-7.4,0-14.3-2.9-19.5-8.1S4.4,39.4,4.4,32s2.9-14.3,8.1-19.5S24.6,4.4,32,4.4s14.3,2.9,19.5,8.1
	s8.1,12.1,8.1,19.5s-2.9,14.3-8.1,19.5S39.4,59.6,32,59.6L32,59.6z M32,58.8c7.1,0,13.9-2.8,18.9-7.8c5.1-5.1,7.8-11.8,7.8-18.9
	s-2.8-13.9-7.8-18.9C45.8,8.1,39.1,5.4,32,5.4s-13.9,2.8-18.9,7.8C8,18.1,5.2,24.9,5.2,32S8,45.9,13,50.9C18.1,56,24.9,58.8,32,58.8
	L32,58.8z"/>
<path class="st3" d="M32.4,31.4"/>
<path class="st3" d="M56.3,45c-0.5-0.4-19.8-15.7-19.8-15.7L32,3.6c-0.3,0.1-0.7,0.4-0.9,0.8l-3.2,25L8,44.7c0,0-0.4,0.5-0.6,0.8
	c-0.1,0.2-0.1,0.5-0.1,0.8l0,0l24.6-10.1l24.6,10.1l0,0C56.7,45.8,56.5,45.3,56.3,45z"/>
<path class="st5" d="M32.2,32.8L32,37.4l22.6,9.1c0.8,0.4,1.4,0.2,2-0.2L32.5,32.7C32.4,32.6,32.2,32.7,32.2,32.8z"/>
<linearGradient id="SVGID_4_" gradientUnits="userSpaceOnUse" x1="44.4882" y1="802.7174" x2="42.7882" y2="799.9174" gradientTransform="matrix(1 0 0 -1 0 842.1102)">
	<stop  offset="0" style="stop-color:#26353C"/>
	<stop  offset="1" style="stop-color:#06111E;stop-opacity:0"/>
</linearGradient>
<path class="st6" d="M32.2,32.8c0,0,1.3,2.3,2.8,3.9c2.1,2.3,4.9,3.9,4.9,3.9l14.7,5.9c0.8,0.4,1.4,0.2,2-0.2L32.5,32.7
	C32.4,32.6,32.2,32.7,32.2,32.8z"/>
<path class="st7" d="M56.5,45.4c0-0.1-0.1-0.2-0.2-0.4L35.7,29.9l-2.8,1.8c0,0,0.2,0.1,0.3,0c0.3-0.1,0.9-0.2,1.5,0
	c0.5,0.2,21.8,13.8,21.8,13.8S56.5,45.5,56.5,45.4z"/>
<path class="st8" d="M55.8,44.5L36.6,29.3l0,0l-0.9,0.6l20.6,15.2C56.2,44.9,56,44.7,55.8,44.5z"/>
<path class="st5" d="M32.5,31.3c-0.1,0.1-0.1,0.1-0.1,0.1s0,0.2,0.2,0.1c0.1-0.1,3-1.6,4-2.2l-3.5-24C33,4.4,32.6,4,31.9,3.7
	l0.4,27.8L32.5,31.3z"/>
<path class="st7" d="M30.8,5.3v1.3l-2.2,22.1c0,0.3,0.1,0.6,0.4,0.8l1.3,1l0.9-24.4l0.1-1.9C31,4.4,30.9,4.8,30.8,5.3z"/>
<path class="st7" d="M29.6,30.9l-1.2-1L8.1,44.6c0,0-0.6,0.4-0.7,0.8l0,0l0,0l0,0L8.1,45l0,0l21.3-13.4
	C29.8,31.4,29.9,31.2,29.6,30.9z"/>
<path class="st5" d="M31.7,32.8c0-0.1-0.1-0.2-0.2-0.1L7.3,46.4c0.6,0.4,1.2,0.5,2,0.2l22.6-9.1L31.7,32.8z"/>
<linearGradient id="SVGID_5_" gradientUnits="userSpaceOnUse" x1="39.5802" y1="812.9979" x2="36.7802" y2="817.4979" gradientTransform="matrix(1 0 0 -1 0 842.1102)">
	<stop  offset="0.1" style="stop-color:#07131F"/>
	<stop  offset="0.9" style="stop-color:#07131F;stop-opacity:0"/>
</linearGradient>
<path class="st9" d="M32.4,31.4l0.1-0.1C32.4,31.4,32.4,31.4,32.4,31.4L32.4,31.4c0,0,0,0.1,0.1,0.1h0.1c0.1-0.1,3-1.6,4-2.2
	l-0.4-2.9l0,0L33.1,5.3c0-0.4-0.1-0.7-0.3-0.9c0,0,1.5,20.2,1.5,22.4C34.3,29.7,32.4,31.4,32.4,31.4z"/>
<linearGradient id="SVGID_6_" gradientUnits="userSpaceOnUse" x1="31.9818" y1="805.774" x2="27.7818" y2="804.574" gradientTransform="matrix(1 0 0 -1 0 842.1102)">
	<stop  offset="0.2" style="stop-color:#07131F"/>
	<stop  offset="0.9" style="stop-color:#07131F;stop-opacity:0"/>
</linearGradient>
<path class="st10" d="M31.7,32.8c0-0.1-0.1-0.2-0.2-0.1L7.3,46.4c0.6,0.4,1.2,0.5,2,0.2l22.6-9.1L31.7,32.8z"/>
<linearGradient id="SVGID_7_" gradientUnits="userSpaceOnUse" x1="20.7914" y1="800.2068" x2="20.1914" y2="801.7068" gradientTransform="matrix(1 0 0 -1 0 842.1102)">
	<stop  offset="0" style="stop-color:#07131F"/>
	<stop  offset="0.1" style="stop-color:#07131F"/>
	<stop  offset="1" style="stop-color:#07131F;stop-opacity:0"/>
</linearGradient>
<path class="st11" d="M9.3,46.5l22.6-9.1L31.7,33c-0.4,1.2-1.1,2.5-3,3.5l0,0c-1.4,0.8-14.8,7.4-19.6,9.7c-0.3,0.2-0.7,0.3-0.9,0.4
	C8.6,46.8,8.9,46.7,9.3,46.5z"/>
<linearGradient id="SVGID_8_" gradientUnits="userSpaceOnUse" x1="35.6017" y1="824.8958" x2="32.2017" y2="824.4958" gradientTransform="matrix(1 0 0 -1 0 842.1102)">
	<stop  offset="0.3" style="stop-color:#07131F"/>
	<stop  offset="0.3" style="stop-color:#07131F"/>
	<stop  offset="0.8" style="stop-color:#07131F;stop-opacity:0"/>
</linearGradient>
<path class="st12" d="M32.5,31.3c-0.1,0.1-0.1,0.1-0.1,0.1s0,0.2,0.2,0.1c0.1-0.1,3-1.6,4-2.2l-3.5-24C33,4.4,32.6,4,31.9,3.7
	l0.4,27.8L32.5,31.3z"/>
<linearGradient id="SVGID_9_" gradientUnits="userSpaceOnUse" x1="35.7075" y1="824.953" x2="33.4075" y2="824.653" gradientTransform="matrix(1 0 0 -1 0 842.1102)">
	<stop  offset="0.4" style="stop-color:#26353C"/>
	<stop  offset="1" style="stop-color:#3B474E;stop-opacity:0"/>
</linearGradient>
<path class="st13" d="M32.5,31.3c-0.1,0.1-0.1,0.1-0.1,0.1s0,0.2,0.2,0.1c0.1-0.1,3-1.6,4-2.2l-3.5-24C33,4.4,32.6,4,31.9,3.7
	l0.4,27.8L32.5,31.3z"/>
<linearGradient id="SVGID_10_" gradientUnits="userSpaceOnUse" x1="-0.3605" y1="809.2787" x2="27.5395" y2="793.1788" gradientTransform="matrix(1 0 0 -1 0 842.1102)">
	<stop  offset="0" style="stop-color:#24313A;stop-opacity:0"/>
	<stop  offset="0" style="stop-color:#24333B;stop-opacity:0"/>
	<stop  offset="0.1" style="stop-color:#26353C"/>
</linearGradient>
<path class="st14" d="M5.1,44.4C4.4,42.8,0.4,35,4.8,20H3.1c-0.9,3-1.6,4.8-2,7.5c0,0-0.2,1-0.3,2.1S0.7,31.3,0.7,32
	c0,6,1.5,9.5,1.5,9.5c1.6,5,4.4,9.5,8.2,12.9c3.3,2.9,8.4,5.1,12.6,5.9C22.3,60.2,10.3,55.1,5.1,44.4z"/>
<linearGradient id="SVGID_11_" gradientUnits="userSpaceOnUse" x1="31.95" y1="804.7102" x2="31.95" y2="809.5103" gradientTransform="matrix(1 0 0 -1 0 842.1102)">
	<stop  offset="0.3" style="stop-color:#A5ABAF"/>
	<stop  offset="1" style="stop-color:#A5ABAF;stop-opacity:0"/>
</linearGradient>
<path class="st15" d="M32.4,32.6h-0.9l0,0c0.1,0,0.2,0,0.2,0.1l0.2,4.6l0,0H32l0.2-4.6C32.2,32.6,32.3,32.5,32.4,32.6
	C32.4,32.6,32.4,32.6,32.4,32.6z"/>
<linearGradient id="SVGID_12_" gradientUnits="userSpaceOnUse" x1="47.65" y1="839.8102" x2="47.65" y2="778.8102" gradientTransform="matrix(1 0 0 -1 0 842.1102)">
	<stop  offset="0" style="stop-color:#DEDFDD"/>
	<stop  offset="0" style="stop-color:#C5C9C7"/>
	<stop  offset="0" style="stop-color:#9EA4A5"/>
	<stop  offset="0" style="stop-color:#82898C"/>
	<stop  offset="0" style="stop-color:#71797D"/>
	<stop  offset="0" style="stop-color:#6B7378"/>
	<stop  offset="0.2" style="stop-color:#323F47"/>
	<stop  offset="0.5" style="stop-color:#26353C"/>
	<stop  offset="0.8" style="stop-color:#323F47"/>
	<stop  offset="1" style="stop-color:#434D54"/>
</linearGradient>
<path class="st16" d="M42,2.3c10.5,4,20.4,15,20.4,28.9C62.4,48,49,61.7,32,61.7v1.6c17,0,31.3-14,31.3-31.3
	C63.3,18.2,54.5,6.6,42,2.3z"/>
<linearGradient id="SVGID_13_" gradientUnits="userSpaceOnUse" x1="32" y1="841.4102" x2="32.3" y2="841.4102" gradientTransform="matrix(1 0 0 -1 0 842.1102)">
	<stop  offset="0" style="stop-color:#DEDFDD"/>
	<stop  offset="0" style="stop-color:#C5C9C7"/>
	<stop  offset="0" style="stop-color:#9EA4A5"/>
	<stop  offset="0" style="stop-color:#82898C"/>
	<stop  offset="0" style="stop-color:#71797D"/>
	<stop  offset="0" style="stop-color:#6B7378"/>
	<stop  offset="0.2" style="stop-color:#323F47"/>
	<stop  offset="0.5" style="stop-color:#26353C"/>
	<stop  offset="0.8" style="stop-color:#323F47"/>
	<stop  offset="1" style="stop-color:#434D54"/>
</linearGradient>
<path class="st17" d="M32.3,0.7c-0.1,0-0.2,0-0.3,0C32.1,0.7,32.2,0.7,32.3,0.7L32.3,0.7z"/>
<linearGradient id="SVGID_14_" gradientUnits="userSpaceOnUse" x1="57.2891" y1="834.0176" x2="43.7891" y2="814.2177" gradientTransform="matrix(1 0 0 -1 0 842.1102)">
	<stop  offset="0.7" style="stop-color:#26353C"/>
	<stop  offset="0.7" style="stop-color:#2A383F"/>
	<stop  offset="0.7" style="stop-color:#36424A"/>
	<stop  offset="0.7" style="stop-color:#49545B"/>
	<stop  offset="0.8" style="stop-color:#646D73;stop-opacity:0"/>
	<stop  offset="0.8" style="stop-color:#868D92;stop-opacity:0"/>
	<stop  offset="0.8" style="stop-color:#B0B5B8;stop-opacity:0"/>
	<stop  offset="0.8" style="stop-color:#E1E3E3;stop-opacity:0"/>
	<stop  offset="0.8" style="stop-color:#FFFFFF;stop-opacity:0"/>
</linearGradient>
<path class="st18" d="M58.8,20.2C51.8,4.1,36,3.2,35.1,3.1c0,0,0,0-0.1,0l0,0c12.1,2.2,19.8,10.1,22.5,18.4v0.1
	c1.2,3.2,1.8,6.6,1.9,10.3c0.1,3.5-0.7,7.4-2.2,11C57.1,43.4,57,44,56.9,44h1.6C63.3,35,61.2,25.9,58.8,20.2z"/>
<path class="st19" d="M2.2,32.1C2.2,15.7,15.5,2.2,32,2.2l0,0c16.5,0,29.8,13.4,29.8,29.9l0,0c0,16.4-13.3,29.7-29.8,29.7l0,0
	C15.5,61.8,2.2,48.5,2.2,32.1L2.2,32.1z M11.5,11.5c-5.3,5.3-8.6,12.6-8.6,20.6l0,0c0,8,3.3,15.3,8.5,20.5l0,0
	c5.3,5.2,12.6,8.5,20.6,8.5l0,0c8,0,15.3-3.2,20.5-8.5l0,0c5.3-5.2,8.5-12.5,8.5-20.5l0,0c0-8-3.3-15.3-8.5-20.6l0,0
	C47.3,6.2,40,2.9,32,2.9l0,0C24,2.9,16.7,6.2,11.5,11.5L11.5,11.5z"/>
<path class="st20" d="M7.9,44.8L7.9,44.8l20.4-14.7c1.1,0.6,2.9,1.4,3.1,1.4c0.2,0.1,0.2-0.1,0.2-0.1l-2.5-2.1
	c-0.3-0.2-0.4-0.5-0.4-0.8l2.4-24.1C31,4.5,31,4.7,30.9,4.8c-0.1,0.2-0.1,0.3-0.1,0.5l-3.5,24.1L8.1,44.5C8,44.6,7.9,44.7,7.9,44.8z
	"/>
<g id="Wortmarke_Vektor_RZ_1_">
	<rect x="160.59" y="36.1" class="st3" width="4.1" height="1"/>
	<path class="st3" d="M92.29,30.3l-0.4,9.5V40c0,0.8,0.2,1,1.5,1.1v0.4c-0.9-0.1-1.3-0.1-1.8-0.1s-0.9,0-1.8,0.1v-0.4
		c1.3-0.1,1.5-0.2,1.5-1.2l0.4-9v-0.1c0-0.8-0.3-1-1.5-1.1v-0.5c0.7,0.1,1,0.1,1.5,0.1c0.7,0,1,0,1.7-0.1l3.4,9.3l3.5-9.3
		c0.8,0.1,1.2,0.1,1.8,0.1c0.5,0,0.8,0,1.5-0.1v0.5c-1.2,0.1-1.5,0.3-1.5,1.1v0.1l0.2,9c0,1,0.2,1.1,1.5,1.2v0.4
		c-1.2-0.1-1.6-0.1-2.3-0.1c-0.7,0-1.1,0-2.3,0.1v-0.4c1.2-0.1,1.5-0.3,1.5-1.1v-0.1l-0.2-9.5l-3.1,8.1l-0.2,0.6l-0.3,0.7l-0.2,0.7
		l-0.2,0.6h-0.3l-0.2-0.6l-0.3-0.7l-0.2-0.7l-0.2-0.7L92.29,30.3z M108.49,41.1c-1.7,0-2.4-1.3-2.4-4.2h5.5c0-2.8-1.2-4.3-3.4-4.3
		c-2.2,0-3.6,1.8-3.6,4.6s1.4,4.5,3.7,4.5c1.8,0,3-1.1,3.2-3h-0.7C110.59,40.2,109.79,41.1,108.49,41.1 M106.09,36.2
		c0.2-2.1,0.9-3.2,2.1-3.2c1.2,0,1.8,1,1.9,3.2H106.09z M112.59,33.2v-0.3c1-0.1,1.7-0.2,2.4-0.4c0.1,0.7,0.1,1,0.2,1.5v0.2
		c0.4-1,1.2-1.7,2.1-1.7s1.6,0.6,1.6,1.5c0,0.5-0.3,0.9-0.8,0.9c-0.4,0-0.8-0.3-0.8-0.6c0,0,0-0.1,0-0.2v-0.2v-0.1
		c0-0.3-0.2-0.4-0.6-0.4c-1,0-1.6,1.2-1.6,3v3.8c0,0.8,0.2,0.9,1.3,1v0.4c-1-0.1-1.4-0.1-2-0.1c-0.7,0-1,0-2.1,0.1v-0.4
		c1.1-0.1,1.3-0.2,1.3-1v-5.8v-0.3c0-0.8-0.1-0.9-1.1-0.9H112.59z M125.99,32.4v3h-0.4c-0.3-1.6-1-2.4-2.1-2.4
		c-1.4,0-2.2,1.5-2.2,4.1c0,2.6,0.7,3.9,2.1,3.9c1.1,0,1.8-0.8,2-2.4h0.8c-0.2,2-1.3,3-2.9,3c-2.1,0-3.6-1.8-3.6-4.5
		c0-2.7,1.5-4.6,3.6-4.6c0.8,0,1.3,0.2,1.9,0.8l0.5-0.9C125.69,32.4,125.99,32.4,125.99,32.4z M131.39,41.1c-1.7,0-2.4-1.3-2.4-4.2
		h5.5c0-2.8-1.2-4.3-3.4-4.3c-2.2,0-3.6,1.8-3.6,4.6s1.4,4.5,3.7,4.5c1.8,0,3-1.1,3.2-3h-0.7C133.49,40.2,132.69,41.1,131.39,41.1
		 M128.99,36.2c0.2-2.1,0.9-3.2,2.1-3.2s1.8,1,1.9,3.2H128.99z M142.99,39.6V29c-0.9,0.2-1.7,0.4-2.8,0.5v0.3c1.2,0,1.3,0.1,1.3,1.1
		v3.2c-0.7-1.1-1.2-1.4-2.2-1.4c-2,0-3.3,1.9-3.3,4.5c0,2.6,1.4,4.5,3.4,4.5c1,0,1.8-0.5,2.3-1.5c0.1,0.7,0.1,0.8,0.3,1.5
		c0.8-0.2,1.1-0.3,2.1-0.4h0.3V41C143.09,40.8,142.99,40.7,142.99,39.6 M139.49,41.2c-1.3,0-2-1.4-2-4c0-2.7,0.6-4,2-4
		c1.4,0,2.1,1.4,2.1,4.1C141.49,39.8,140.79,41.2,139.49,41.2 M148.89,41.1c-1.7,0-2.4-1.3-2.4-4.2h5.5c0-2.8-1.2-4.3-3.4-4.3
		c-2.2,0-3.6,1.8-3.6,4.6s1.4,4.5,3.7,4.5c1.8,0,3-1.1,3.2-3h-0.7C150.99,40.2,150.19,41.1,148.89,41.1 M146.49,36.2
		c0.2-2.1,0.9-3.2,2.1-3.2s1.8,1,1.9,3.2H146.49z M153.49,41.7v-3.1h0.4c0.3,1.7,1.1,2.5,2.4,2.5c1.1,0,1.9-0.7,1.9-1.7
		c0-0.6-0.3-1-1.2-1.5l-0.7-0.3l-0.9-0.3c-1.3-0.6-1.8-1.1-1.8-2.2c0-1.5,1.1-2.4,2.8-2.4c0.7,0,1.2,0.2,1.9,0.6l0.3-0.8h0.3v2.8
		h-0.4c-0.2-1.5-0.8-2.2-1.9-2.2c-1,0-1.7,0.7-1.7,1.5c0,0.7,0.3,1,1.9,1.7l0.8,0.3c1.4,0.6,1.9,1.2,1.9,2.3c0,1.5-1.2,2.6-3,2.6
		c-0.8,0-1.5-0.2-2.2-0.8l-0.4,0.8h-0.4V41.7z M173.29,32.2c0-1-0.4-1.8-1.1-2.3c-0.6-0.5-1.3-0.7-2.5-0.7h-4.8v0.5
		c1.3,0.1,1.5,0.2,1.5,1.2v8.9c0,1-0.1,1.1-1.5,1.2v0.4h4.6c1.4,0,2.1-0.2,2.9-0.6c0.9-0.6,1.5-1.7,1.5-2.9c0-1-0.4-1.9-1.1-2.4
		c-0.4-0.3-0.8-0.5-1.5-0.6C172.59,34.4,173.29,33.5,173.29,32.2 M167.89,29.8h1.6c1.5,0,2.2,0.8,2.2,2.5c0,0.8-0.2,1.5-0.6,1.9
		c-0.4,0.5-0.9,0.6-1.9,0.6h-1.3V29.8z M169.69,35.3c1,0,1.5,0.2,1.9,0.6c0.4,0.4,0.7,1.2,0.7,2.1c0,1.8-0.9,2.9-2.6,2.9h-0.7
		c-1,0-1.1-0.1-1.1-1v-4.6H169.69z M179.29,41.1c-1.7,0-2.4-1.3-2.4-4.2h5.5c-0.1-2.8-1.2-4.3-3.4-4.3s-3.6,1.8-3.6,4.6
		c0,2.8,1.4,4.5,3.7,4.5c1.8,0,3-1.1,3.2-3h-0.7C181.39,40.2,180.59,41.1,179.29,41.1 M176.89,36.2c0.2-2.1,0.9-3.2,2.1-3.2
		s1.8,1,1.9,3.2H176.89z M183.29,33.3V33c1.1-0.1,1.7-0.3,2.4-0.6c0.1,0.4,0.1,0.9,0.2,1.6c0.7-1,1.4-1.4,2.5-1.4
		c1.1,0,2.1,0.6,2.4,1.5c0.2,0.4,0.3,1,0.3,1.7v4.4c0,0.8,0.2,0.9,1.3,1v0.4c-1-0.1-1.3-0.1-2-0.1s-1,0-2,0.1v-0.4
		c1,0,1.2-0.2,1.2-1v-4.5c0-1.6-0.5-2.2-1.7-2.2s-1.9,0.8-1.9,2.3v4.4c0,0.7,0.2,0.9,1.2,1v0.4c-1-0.1-1.3-0.1-2-0.1
		c-0.6,0-1,0-2,0.1v-0.4c1.1-0.1,1.3-0.2,1.3-1v-5.7v-0.3c0-0.8-0.1-0.9-1-0.9C183.49,33.3,183.39,33.3,183.29,33.3 M193.09,41.5
		l5-8.2h-2.3c-1.2,0-1.5,0.3-2.1,1.9h-0.4l0.4-2.4h6.3l-5,8.2h2.1c1.2,0,1.8-0.5,2.3-2.2h0.4l-0.5,2.6h-6.2V41.5z"/>
</g>
<path class="st3" d="M118.29,49v0.6h-2v7.1h-0.7v-7.1h-2V49H118.29z M120.09,49v2.9c0.4-0.6,0.9-0.8,1.6-0.8c0.7,0,1.2,0.3,1.5,0.7
	c0.2,0.3,0.2,0.6,0.2,1.7v3.1h-0.6v-3.1c0-0.9,0-1.1-0.2-1.4c-0.2-0.3-0.5-0.5-1-0.5c-1,0-1.5,0.7-1.5,2v3.1h-0.6V49H120.09z
	 M125.39,54c0,1.5,0.6,2.3,1.7,2.3c0.6,0,1-0.3,1.3-0.9l0.6,0.1c-0.3,0.9-1,1.3-1.9,1.3c-1.4,0-2.3-1.1-2.3-2.8
	c0-1.8,0.9-2.9,2.2-2.9s2.1,1.1,2.1,2.7V54C129.09,54,125.39,54,125.39,54z M128.39,53.5c-0.1-1.2-0.6-1.9-1.5-1.9s-1.4,0.7-1.6,1.9
	H128.39z M133.99,49v3.1c0.4-0.7,0.9-1,1.6-1c1.3,0,2.1,1.1,2.1,2.8c0,1.7-0.9,2.9-2.1,2.9c-0.7,0-1.1-0.3-1.5-0.9v0.2
	c0,0.3,0,0.4-0.1,0.6h-0.6c0.1-0.3,0.1-0.6,0.1-1.6V49H133.99z M133.99,54c0,1.4,0.6,2.3,1.5,2.3c0.9,0,1.5-0.9,1.5-2.3
	c0-1.4-0.6-2.3-1.5-2.3C134.59,51.6,133.99,52.5,133.99,54z M139.39,54c0,1.5,0.6,2.3,1.7,2.3c0.6,0,1-0.3,1.3-0.9l0.6,0.1
	c-0.3,0.9-1,1.3-1.9,1.3c-1.4,0-2.3-1.1-2.3-2.8c0-1.8,0.9-2.9,2.2-2.9s2.1,1.1,2.1,2.7V54C143.09,54,139.39,54,139.39,54z
	 M142.39,53.5c-0.1-1.2-0.6-1.9-1.5-1.9c-0.9,0-1.4,0.7-1.6,1.9H142.39z M147.29,52.7c-0.1-0.7-0.4-1.1-1.2-1.1
	c-0.7,0-1.1,0.4-1.1,0.9s0.3,0.7,1.3,1c0.9,0.3,1.2,0.4,1.5,0.7c0.2,0.2,0.3,0.6,0.3,1c0,1-0.7,1.7-1.9,1.7s-1.9-0.6-1.9-1.8h0.6
	c0.1,0.8,0.5,1.2,1.3,1.2s1.3-0.4,1.3-1.1c0-0.3-0.1-0.6-0.4-0.7c-0.2-0.1-0.2-0.1-1.2-0.5c-0.6-0.2-0.9-0.3-1.1-0.6
	c-0.2-0.2-0.3-0.6-0.3-0.9c0-0.9,0.7-1.5,1.8-1.5c1.1,0,1.7,0.6,1.8,1.6h-0.8V52.7z M151.59,51.2v0.5h-1.4l-0.1,3v0.5v0.1
	c0,0.7,0.1,0.9,0.6,0.9c0.2,0,0.5-0.1,0.8-0.2v0.6c-0.3,0.1-0.5,0.1-0.9,0.1c-0.8,0-1.2-0.3-1.2-1.1c0-0.1,0-0.3,0-0.6v-0.4l0.1-2.9
	h-0.7v-0.5h0.8v-1.6h0.6v1.6H151.59z M159.59,53.9c0,1.7-0.9,2.9-2.3,2.9c-1.4,0-2.3-1.1-2.3-2.9c0-1.7,0.9-2.8,2.3-2.8
	C158.69,51.1,159.59,52.2,159.59,53.9z M155.59,53.9c0,1.4,0.7,2.3,1.7,2.3s1.7-1,1.7-2.3c0-1.4-0.7-2.3-1.7-2.3
	S155.59,52.5,155.59,53.9z M161.49,51.2c0.1,0.3,0.1,0.6,0.1,0.8c0,0.1,0,0.2,0,0.3c0.4-0.9,0.8-1.3,1.4-1.3c0.2,0,0.5,0.1,0.7,0.2
	v0.6c-0.4-0.2-0.5-0.2-0.7-0.2c-0.4,0-0.8,0.3-1.1,0.9c-0.2,0.4-0.3,0.9-0.3,1.7v2.4h-0.6v-3.5c0-1.2,0-1.3-0.1-1.9H161.49z
	 M167.49,51.2c0.1,0.3,0.1,0.4,0.1,0.8c0.4-0.7,0.9-1,1.7-1c0.8,0,1.4,0.3,1.6,0.9c0.1,0.3,0.1,0.5,0.1,1.6v3.1h-0.6v-3.1
	c0-0.9,0-1.1-0.2-1.4s-0.5-0.5-1-0.5c-1,0-1.6,0.7-1.6,1.9v3.1h-0.6V53c0-1.3,0-1.3-0.1-1.8H167.49z M176.99,53.9
	c0,1.7-0.9,2.9-2.3,2.9c-1.4,0-2.3-1.1-2.3-2.9c0-1.7,0.9-2.8,2.3-2.8C175.99,51.1,176.99,52.2,176.99,53.9z M172.99,53.9
	c0,1.4,0.7,2.3,1.7,2.3s1.7-1,1.7-2.3c0-1.4-0.7-2.3-1.7-2.3S172.99,52.5,172.99,53.9z M180.49,51.2v0.5h-1.4l-0.1,3v0.5v0.1
	c0,0.7,0.1,0.9,0.6,0.9c0.2,0,0.5-0.1,0.8-0.2v0.6c-0.3,0.1-0.5,0.1-0.9,0.1c-0.8,0-1.2-0.3-1.2-1.1c0-0.1,0-0.3,0-0.6v-0.4l0.1-2.9
	h-0.8v-0.5h0.8v-1.6h0.6v1.6H180.49z M182.19,49v2.9c0.4-0.6,0.9-0.8,1.6-0.8s1.2,0.3,1.5,0.7c0.2,0.3,0.2,0.6,0.2,1.7v3.1h-0.6
	v-3.1c0-0.9,0-1.1-0.2-1.4s-0.5-0.5-1-0.5c-1,0-1.5,0.7-1.5,2v3.1h-0.6V49H182.19z M187.99,49.4c0,0.3-0.2,0.5-0.5,0.5
	s-0.5-0.2-0.5-0.5s0.2-0.5,0.5-0.5S187.99,49.1,187.99,49.4z M187.89,51.2v5.4h-0.7v-5.4H187.89z M189.99,51.2
	c0.1,0.3,0.1,0.4,0.1,0.8c0.4-0.7,0.9-1,1.7-1c0.8,0,1.4,0.3,1.6,0.9c0.1,0.3,0.1,0.5,0.1,1.6v3.1h-0.6v-3.1c0-0.9,0-1.1-0.2-1.4
	s-0.5-0.5-1-0.5c-1,0-1.6,0.7-1.6,1.9v3.1h-0.6V53c0-1.3,0-1.3-0.1-1.8H189.99z M199.49,51.7h-1.1c0.3,0.3,0.5,0.8,0.5,1.3
	s-0.2,1-0.5,1.2c-0.2,0.2-0.4,0.3-1.3,0.5c-0.8,0.2-1.1,0.4-1.1,0.7c0,0.2,0.2,0.3,1.1,0.4c1.1,0.1,1.4,0.2,1.8,0.4
	c0.4,0.3,0.7,0.7,0.7,1.2c0,1-0.9,1.6-2.4,1.6c-1.4,0-2.4-0.6-2.4-1.6c0-0.7,0.3-1.1,1.2-1.4c-0.4-0.1-0.6-0.3-0.6-0.6
	c0-0.4,0.3-0.6,1-0.9c-0.8-0.3-1.1-0.8-1.1-1.6c0-1.1,0.8-1.8,1.9-1.8c0.3,0,0.5,0,0.8,0.1l1.6-0.1v0.6H199.49z M195.29,57.4
	c0,0.6,0.7,1,1.8,1c1.1,0,1.8-0.4,1.8-1c0-0.7-0.6-1-1.8-1C195.99,56.4,195.29,56.8,195.29,57.4z M195.79,53c0,0.7,0.5,1.2,1.2,1.2
	s1.2-0.5,1.2-1.2s-0.5-1.3-1.2-1.3S195.79,52.2,195.79,53z M201.79,56.2c0,0.3-0.3,0.6-0.6,0.6s-0.6-0.3-0.6-0.6s0.3-0.6,0.6-0.6
	C201.49,55.6,201.79,55.9,201.79,56.2z"/>
</svg>
